<svg width="64" height="25" viewBox="0 0 64 25" fill="none" xmlns="http://www.w3.org/2000/svg">
<path d="M48.787 0.653666C49.4713 1.58751 49.8277 2.27233 50.1128 3.25286C50.4407 4.34235 50.3551 6.568 49.9274 7.782C49.7706 8.24892 49.2717 9.68081 48.8012 10.9726C48.0029 13.2294 47.9744 13.3539 47.9886 14.7547C47.9886 16.1866 47.9886 16.2021 47.732 15.8442C47.3614 15.315 46.2779 12.8559 45.8645 11.5952C45.6649 10.9882 45.4226 9.96097 45.3228 9.30728C45.166 8.24892 45.166 7.9532 45.3941 6.81703C45.8218 4.60693 47.6608 -2.28882e-05 48.1027 -2.28882e-05C48.2025 -2.28882e-05 48.5161 0.295693 48.787 0.653666Z" fill="#40C1AC"/>
<path d="M61.3048 3.70303C60.1929 4.63688 59.7795 5.41508 58.2968 9.16601C57.1136 12.201 56.2297 13.4306 54.6046 14.3177C53.3928 14.987 51.1831 15.3761 51.1831 14.9247C51.1831 14.4578 52.2809 11.2516 52.9509 9.72632C54.1056 7.14269 54.9325 6.25554 57.4557 4.8859C58.753 4.18552 61.0768 3.26724 61.5329 3.26724C61.7468 3.2828 61.6898 3.37619 61.3048 3.70303Z" fill="#40C1AC"/>
<path d="M5.70059 10.2868C11.8164 14.5981 16.7774 18.0066 18.1032 18.7848C20.5695 20.2478 24.1192 21.4774 27.227 21.9599C29.1515 22.2556 33.4568 22.2245 35.5667 21.8976C40.2854 21.1505 45.8167 19.0338 49.1526 16.6992C50.6779 15.6409 49.6943 16.528 47.9266 17.8043C44.1345 20.5591 40.428 22.2245 36.2082 23.0649C33.9985 23.5163 29.565 23.5474 27.4408 23.1272C23.2353 22.3023 19.1296 20.5591 15.4516 18.0222C13.9262 16.9794 0.996147 7.17401 0.996147 7.06507C0.996147 6.95612 0.882099 6.89386 5.70059 10.2868Z" fill="#40C1AC"/>
<path d="M55.3148 17.68C55.5144 17.7111 56.0561 17.8201 56.5265 17.9135C58.1089 18.2247 59.5773 19.2675 61.5589 21.5087C62.4998 22.5515 63.4834 23.9679 63.3836 24.0924C63.3408 24.1235 63.127 24.0146 62.8847 23.8278C61.9723 23.1118 61.3878 23.0029 57.8096 22.8784C53.9747 22.7383 53.4758 22.6294 52.093 21.6644C51.0808 20.9484 50.4678 20.1858 49.8833 18.9096L49.4556 17.9757L49.9261 17.8512C50.482 17.7267 54.8016 17.571 55.3148 17.68Z" fill="#40C1AC"/>
</svg>
