<svg width="497" height="437" viewBox="0 0 497 437" fill="none" xmlns="http://www.w3.org/2000/svg">
<g opacity="0.2">
<path d="M-1.4957 2.88821C6.79794 4.3111 30.4546 10.9081 57.2313 19.2298C73.1077 24.1452 87.4834 30.0523 101.03 37.2961C122.08 48.4635 137.561 60.1915 150.555 74.8515C157.308 82.4833 161.929 89.0803 166.352 97.4451C168.643 101.8 168.84 102.016 172.434 103.999C180.214 108.268 210.585 127.196 209.677 127.196C208.65 127.196 179.306 109.734 173.698 105.767C172.237 104.732 170.933 103.913 170.894 103.999C170.815 104.085 172.434 106.37 174.488 109.087C188.232 127.239 193.998 136.639 199.132 148.971C204.898 162.984 208.768 178.291 214.969 212.009C217.852 227.919 219.313 233.481 222.433 240.466C231.556 260.947 250.552 277.763 273.301 285.438C278.277 287.119 275.433 286.731 268.285 284.748C259.833 282.377 252.409 278.841 245.418 273.839C243.365 272.373 241.864 271.425 242.022 271.726C242.219 272.028 244.312 275.003 246.722 278.323C252.922 286.818 257.661 293.846 260.465 298.718C265.323 307.126 269.312 317.905 272.076 329.763L273.182 334.678L275.552 335.842C280.607 338.343 297.589 348.648 315.993 360.333C329.5 368.914 336.53 373.053 344.31 377.02C390.004 400.217 431.63 403.408 459.079 385.773C472.467 377.192 482.34 364.084 488.738 346.449C490.989 340.197 491.503 336.575 491.266 327.952C491.068 319.328 490.476 316.612 487.435 309.756C480.997 295.226 467.925 284.834 451.614 281.255C446.757 280.178 435.975 280.178 431.354 281.255C420.73 283.67 412.279 288.585 405.644 296.088C401.773 300.486 400.47 302.426 398.258 307.212C395.928 312.3 394.625 317.905 394.112 324.89C393.993 326.227 393.954 326.055 393.914 324.201C393.875 322.864 394.112 320.148 394.428 318.164C397.666 297.985 413.266 281.773 433.724 277.375C438.858 276.254 448.889 276.383 454.26 277.634C465.082 280.134 474.402 285.74 481.748 294.105C485.658 298.589 487.751 301.909 490.239 307.6C493.477 315.06 494.86 322.993 494.386 331.746C494.03 338.171 493.24 342.094 491.108 347.958C479.971 378.658 460.263 396.035 430.762 401.295C424.522 402.373 407.618 402.373 400.154 401.295C374.009 397.414 347.351 386.462 319.192 367.965C299.919 355.331 275.117 338.041 274.367 336.748C273.577 335.368 273.577 336.92 274.446 341.361C274.959 344.164 276.263 351.968 277.329 358.738C279.778 374.26 280.686 377.623 284.122 384.608C286.452 389.394 288.901 392.93 293.126 397.716C300.156 405.65 308.608 411.643 318.205 415.481C322.668 417.248 322.154 417.335 316.704 415.653C306.08 412.419 298.695 407.59 291.231 399.053L287.281 394.569L287.044 396.164C286.926 397.026 286.807 400.217 286.807 403.192C286.807 407.547 286.689 408.711 286.255 408.884C285.939 409.013 285.465 409.918 285.228 410.824C284.991 411.902 284.556 412.635 284.082 412.764C283.648 412.893 283.016 413.67 282.7 414.532C282.226 415.739 281.871 416.084 281.12 416.084C280.489 416.084 279.857 416.472 279.462 417.162C278.988 417.938 278.593 418.154 277.961 417.981C277.369 417.852 276.816 418.111 276.144 418.844C275.631 419.49 274.92 419.965 274.525 419.965C274.13 419.965 273.301 420.439 272.669 421.043C271.997 421.646 271.129 422.121 270.655 422.121C270.22 422.121 269.549 422.595 269.193 423.155C268.877 423.759 268.206 424.277 267.732 424.363C267.219 424.449 266.824 424.923 266.666 425.57C266.508 426.303 266.073 426.691 265.204 426.907C264.533 427.036 263.427 427.597 262.716 428.157C261.334 429.235 260.584 428.89 260.821 427.295C260.939 426.346 261.413 425.872 262.795 425.398C263.467 425.182 263.467 425.096 262.835 423.587C262.163 422.121 262.163 421.991 262.835 421.474C263.704 420.784 263.704 420.137 262.677 418.628C262.045 417.636 261.966 417.205 262.321 416.731C262.677 416.3 262.598 415.825 262.085 414.748C261.492 413.411 261.492 413.325 262.124 412.807C262.677 412.376 262.756 411.902 262.519 410.479C262.282 408.927 262.361 408.582 263.072 408.064C263.743 407.547 263.901 406.943 263.901 405.132C263.901 401.338 264.849 398.708 266.982 396.681C270.655 393.146 278.119 389.524 282.147 389.308C283.214 389.222 284.043 389.136 284.043 389.049C284.043 388.92 283.332 387.239 282.463 385.255C279.343 378.141 277.566 370.897 276.342 360.462C273.182 333.342 264.533 308.592 249.763 284.36C245.142 276.771 239.889 269.441 237.401 267.113C236.137 265.906 233.807 263.362 232.227 261.378L229.344 257.799L229.028 259.654C228.831 260.688 228.791 265.043 228.91 269.355C229.107 275.995 229.028 277.246 228.554 277.246C227.844 277.246 227.567 277.763 226.975 280.221C226.659 281.73 226.343 282.204 225.75 282.204C225.118 282.204 223.973 284.058 223.104 286.516C223.025 286.731 222.512 286.904 221.92 286.818C221.13 286.775 220.616 287.119 219.826 288.284C218.918 289.534 218.563 289.793 217.694 289.577C216.825 289.405 216.351 289.707 215.087 291.086C214.258 291.992 213.231 292.768 212.757 292.768C212.323 292.811 211.335 293.372 210.585 294.061C209.835 294.794 208.768 295.355 208.215 295.355C207.544 295.355 206.872 295.829 206.162 296.821C205.569 297.64 204.661 298.373 204.187 298.459C203.555 298.546 203.16 299.063 202.844 300.098C202.528 301.046 202.094 301.65 201.462 301.866C200.198 302.211 197.986 303.461 196.802 304.496C195.538 305.531 195.103 305.013 195.261 302.642C195.38 300.917 195.498 300.788 196.762 300.4C197.512 300.184 198.184 299.969 198.263 299.882C198.342 299.839 197.986 298.847 197.473 297.726L196.565 295.7L197.434 295.053C198.658 294.148 198.579 293.242 197.118 291.043C195.972 289.318 195.933 289.146 196.525 288.629C197.157 288.154 197.157 287.982 196.407 286.343C195.34 284.144 195.38 283.454 196.407 283.153C197.157 282.937 197.236 282.721 196.999 281.471C196.249 277.677 196.249 277.461 197.236 277.03C198.065 276.642 198.144 276.254 198.381 272.503C198.697 266.811 199.25 265.043 201.383 262.499C205.925 257.196 217.931 250.944 223.539 250.944C224.25 250.944 224.803 250.814 224.724 250.599C224.645 250.426 223.381 247.667 221.92 244.476C217.733 235.378 215.364 226.625 213.507 213.69C208.887 180.835 198.342 150.911 181.478 122.453C178.121 116.848 170.262 104.689 170.064 104.904C169.985 104.948 170.538 106.715 171.289 108.785C174.764 118.314 176.304 126.851 176.344 137.329C176.423 145.133 175.988 149.488 174.409 156.947C171.96 168.417 166.668 181.568 161.415 189.199C159.243 192.39 152.964 198.901 149.607 201.531C142.458 207.093 133.809 210.499 124.291 211.491C121.606 211.793 121.527 211.836 120.855 213.345C119.75 215.932 115.01 224.34 112.325 228.48C108.533 234.3 103.715 240.423 100.832 243.053C95.2636 248.098 86.8909 251.418 74.332 253.531C69.3953 254.393 60.9042 254.695 60.9042 254.048C60.9042 253.876 62.3654 253.057 64.1426 252.28C67.0652 250.987 67.7761 250.426 70.975 246.891C73.1867 244.433 76.9386 239.345 80.8089 233.481C88.0757 222.572 92.0251 217.959 96.6854 214.984C99.7659 213 105.097 210.844 106.914 210.844C107.428 210.844 107.981 210.672 108.099 210.413C108.217 210.155 107.98 209.982 107.546 209.982C107.112 209.982 104.861 209.292 102.53 208.473C85.7456 202.48 72.0414 187.69 66.5122 169.581C64.5376 163.199 63.9057 158.845 63.9057 151.558C63.9452 144.055 64.972 138.191 67.4206 131.594C69.1583 126.894 69.0793 125.558 67.0652 125.816C66.1173 125.946 65.5249 125.73 65.0115 125.127C64.5771 124.652 63.4713 123.833 62.4839 123.316C61.4966 122.755 60.1143 121.763 59.4034 121.117C58.1396 119.909 58.0606 119.909 56.9153 120.513C55.8095 121.16 55.7305 121.117 54.7827 120.125C54.2297 119.521 53.7953 118.788 53.7953 118.487C53.7953 118.185 53.0054 117.365 52.0181 116.719C51.0308 116.029 50.1619 115.296 50.0434 115.08C49.925 114.908 50.5173 114.347 51.4257 113.83C53.2029 112.838 53.2819 112.709 52.334 111.588C51.8206 110.941 51.7812 110.596 52.1366 109.734C52.571 108.742 52.7685 108.656 54.1902 108.914C55.5725 109.173 55.928 109.044 57.1523 107.836C58.6136 106.457 59.9958 106.112 60.8252 107.017C61.6151 107.88 61.7335 107.147 61.0621 105.681L60.4302 104.301L62.3654 101.886C63.3922 100.55 65.209 98.9111 66.3543 98.1781C71.528 94.9874 79.8216 97.6607 88.1547 105.206C89.1421 106.069 90.1689 106.715 90.4454 106.629C90.7218 106.5 90.8403 106.672 90.7218 107.017C90.6034 107.362 90.8403 107.966 91.2352 108.354C91.9461 109.087 91.9461 109.216 90.7613 113.097C89.1026 118.443 87.3649 121.462 83.771 125.213C78.8737 130.344 74.8059 131.982 71.133 130.258C70.0272 129.697 69.0793 129.352 69.0003 129.438C68.6054 129.956 66.7887 136.251 66.1963 139.269C65.1695 144.573 65.2484 153.196 66.3938 159.103C69.7507 176.437 80.651 191.7 95.7375 200.281C112.641 209.853 131.716 209.594 146.408 199.591C150.318 196.961 156.874 190.407 159.678 186.354C164.496 179.369 169.788 164.881 171.723 153.239C172.632 147.936 172.75 134.268 171.96 129.352C169.63 115.037 164.812 103.309 155.926 90.3307C151.7 84.1649 140.839 72.1782 134.718 66.8748C119.315 53.6808 102.412 43.2032 81.7963 34.1485C72.3968 30.0092 65.5249 27.4652 48.6612 21.9462C16.9478 11.4686 -2.68051 4.22485 -2.68051 2.97446C-2.68051 2.75888 -2.64102 2.62952 -2.60153 2.62952C-2.52255 2.67264 -2.04861 2.80197 -1.4957 2.88821ZM221.248 257.713C216.114 263.448 211.928 270.39 206.754 281.945C202.489 291.474 201.383 294.794 205.056 287.076C208.057 280.781 213.31 271.037 217.101 264.698C220.3 259.352 222.63 256.333 225 254.479C225.632 253.962 225.948 253.531 225.632 253.531C225.316 253.531 223.341 255.428 221.248 257.713ZM280.449 394.957C276.934 398.923 273.577 404.399 269.786 412.376C266.468 419.361 265.718 421.646 268.68 415.739C270.655 411.772 276.342 401.855 278.79 398.104C279.738 396.638 281.555 394.439 282.779 393.189C284.003 391.938 284.596 391.205 284.043 391.507C283.49 391.809 281.871 393.361 280.449 394.957Z" fill="white"/>
<path d="M106.09 63.6414C106.209 64.0294 106.327 64.9349 106.327 65.711C106.327 67.0046 106.406 67.0908 107.433 66.9183C108.144 66.8321 108.736 67.0046 109.092 67.4789C109.566 68.0825 109.487 68.4706 108.697 70.0659C107.828 71.8337 107.788 72.0924 108.262 73.6016C108.776 75.1538 108.776 75.24 107.551 76.3611C106.169 77.6115 106.446 78.0427 108.697 78.0427C109.803 78.0427 109.921 78.2151 110.869 81.5783C112.686 87.7441 111.619 91.7109 106.841 96.5832C103.484 100.033 96.4537 104.344 92.4254 105.422C91.7935 105.595 91.4381 105.94 91.5565 106.155C92.2279 107.363 90.0163 105.379 87.5282 102.533C84.2502 98.8254 83.0259 96.7126 81.7226 92.2715C80.4194 88.0028 80.0639 84.3378 80.6563 81.1903C81.0513 79.0344 81.4067 78.4307 83.1444 76.6629C84.5662 75.1969 85.2771 74.7226 85.751 74.9813C86.1064 75.1969 86.8568 75.4556 87.4097 75.6281C88.3181 75.8437 88.5155 75.7143 88.713 74.7657C88.9105 74.0327 89.4634 73.4722 90.4112 72.9979C91.2011 72.653 92.4254 71.92 93.0573 71.3594C93.7287 70.842 95.032 69.9797 95.9798 69.4623C97.2436 68.7724 97.7175 68.2119 97.915 67.2202C98.152 65.7542 99.0208 65.1074 100.719 65.1074C101.351 65.1074 102.733 64.6331 103.8 64.0294C106.09 62.7359 105.814 62.8222 106.09 63.6414Z" fill="white"/>
<path d="M288.352 96.583C288.589 97.7903 289.063 99.2563 289.418 99.8168C289.971 100.722 289.971 101.11 289.576 102.231C289.181 103.223 289.181 103.654 289.537 104.042C289.774 104.301 289.971 105.336 289.971 106.328C289.971 107.406 290.208 108.354 290.564 108.656C290.88 108.958 291.156 109.82 291.156 110.596C291.156 111.372 291.432 112.235 291.748 112.537C292.104 112.881 292.341 113.787 292.341 114.951C292.341 116.417 292.538 116.934 293.17 117.279C293.842 117.711 293.921 118.056 293.723 119.435C293.526 120.729 293.605 121.16 294.158 121.505C294.671 121.807 294.75 122.195 294.513 123.143C294.355 123.833 294.197 125.256 294.158 126.334C294.158 127.412 293.881 128.749 293.605 129.266C293.289 129.827 293.17 130.732 293.289 131.25C293.486 132.069 292.973 132.759 290.485 135.173C288.865 136.812 286.18 139.959 284.561 142.158C281.283 146.686 280.374 147.203 278.202 145.91C274.213 143.581 269.04 131.293 269.04 124.221C269.04 121.462 270.185 118.875 272.91 115.512C274.055 114.089 274.411 113.399 274.134 112.925C273.581 111.976 273.66 111.89 275.359 110.639C276.504 109.82 276.899 109.26 276.82 108.57C276.78 107.88 277.096 107.449 278.084 106.888C278.834 106.5 279.584 105.767 279.742 105.25C279.94 104.689 280.414 104.344 280.967 104.344C282.625 104.344 283.85 103.352 283.731 102.145C283.613 101.197 283.85 100.938 285.232 100.334C286.851 99.6443 286.851 99.6443 286.219 98.5664C285.429 97.2729 285.706 96.1949 286.97 95.2032L287.918 94.4271L288.352 96.583ZM281.085 120.556C279.229 127.843 278.4 134.182 278.597 139.313C278.676 141.77 278.952 143.797 279.189 144.055C279.584 144.487 279.584 144.185 279.229 142.891C278.992 141.943 278.913 139.744 279.031 137.76C279.268 133.88 281.915 120.082 283.692 113.313C284.324 110.855 284.837 108.699 284.798 108.44C284.758 107.707 282.467 115.124 281.085 120.556Z" fill="white"/>
<path d="M116.434 100.291C117.5 100.722 118.645 101.67 119.672 103.007C121.094 104.818 121.212 105.206 120.778 105.896C119.712 107.621 119.791 108.526 121.094 109.216C122.081 109.733 122.713 110.768 124.293 114.433C126.031 118.443 126.386 118.961 127.255 119.004C128.677 119.004 129.229 119.78 129.229 121.634C129.229 122.539 129.585 124.135 130.019 125.256C130.454 126.377 130.73 127.455 130.572 127.67C130.454 127.886 129.664 128.058 128.835 128.058C127.413 128.058 127.294 128.145 127.176 129.395C127.018 131.378 126.07 131.853 124.569 130.732C123.305 129.697 121.37 129.481 120.659 130.257C120.106 130.861 118.764 130.128 118.171 128.921C117.618 127.843 116.868 127.8 117.184 128.878C117.697 130.645 116.829 131.594 113.788 132.672C108.061 134.612 105.178 133.793 100.794 128.964C98.622 126.549 97.3582 124.652 96.0154 121.806C94.2382 118.055 92.1055 111.976 92.1055 110.682C92.1055 109.647 98.1875 104.171 101.031 102.662C106.284 99.8595 112.761 98.8678 116.434 100.291Z" fill="white"/>
<path d="M305.647 135.174C306.595 135.476 308.214 136.339 309.28 137.115C310.86 138.193 311.413 138.365 312.006 138.02C312.598 137.675 312.953 137.805 313.862 138.839C314.652 139.745 315.244 140.047 315.797 139.874C316.429 139.702 316.824 140.004 317.337 140.995C317.732 141.728 318.325 142.246 318.68 142.203C319.075 142.116 319.47 142.548 319.707 143.367C320.26 145.307 320.734 145.781 321.8 145.48C322.55 145.264 322.866 145.48 323.419 146.557C324.209 148.023 324.644 148.239 324.959 147.247C325.275 146.342 326.855 146.428 327.645 147.42C328.277 148.196 328.237 148.239 326.737 148.929C325.828 149.274 324.762 150.007 324.328 150.481C323.696 151.171 323.38 151.257 322.471 150.869C321.642 150.524 321.366 150.567 321.089 151.128C320.852 151.516 320.181 151.775 319.391 151.775C318.443 151.775 317.89 152.033 317.614 152.637C317.377 153.111 316.863 153.499 316.468 153.499C316.073 153.499 315.323 153.844 314.81 154.319C314.296 154.75 313.23 155.224 312.44 155.397C311.453 155.569 310.939 155.957 310.781 156.518C310.623 157.121 310.228 157.38 309.399 157.38C308.767 157.38 307.938 157.725 307.582 158.199C307.069 158.803 306.555 158.932 305.213 158.803C304.186 158.674 303.396 158.76 303.238 159.062C303.041 159.407 302.725 159.407 302.132 159.062C301.698 158.803 300.789 158.674 300.118 158.803C299.091 158.932 298.38 158.544 295.695 156.302C293.957 154.879 291.153 152.939 289.494 152.033C285.94 150.05 285.308 149.101 286.256 146.687C287.954 142.159 296.722 135.907 302.804 134.829C303.435 134.7 304.739 134.873 305.647 135.174ZM290.403 146.342C289.218 146.687 288.112 147.161 287.875 147.42C287.677 147.635 288.27 147.549 289.218 147.161C290.166 146.816 292.456 146.428 294.312 146.299C297.235 146.083 310.386 146.687 315.639 147.247C318.325 147.506 311.571 146.213 307.938 145.781C303.554 145.221 293.049 145.566 290.403 146.342Z" fill="white"/>
<path d="M254.462 146.34C254.66 146.556 277.408 149.617 278.672 149.617C279.106 149.617 279.343 149.747 279.185 149.876C278.711 150.393 262.519 148.669 257.582 147.634C252.606 146.556 251.5 146.168 253.317 146.168C253.83 146.168 254.383 146.254 254.462 146.34Z" fill="white"/>
<path d="M286.646 153.629C289.845 156.69 291.78 158.199 295.177 160.355C297.862 162.037 298.376 162.554 298.415 163.503C298.455 164.15 298.889 165.141 299.403 165.745C300.034 166.478 300.232 167.082 300.034 167.685C299.876 168.289 300.074 169.022 300.587 169.841C301.535 171.264 301.614 172.083 300.982 172.773C300.666 173.118 300.666 173.679 301.022 174.886C301.456 176.309 301.417 176.567 300.864 177.042C300.311 177.473 300.232 177.947 300.469 179.715C300.627 181.138 300.548 181.957 300.271 182.13C299.995 182.345 299.916 182.992 300.074 183.984C300.232 184.889 300.153 185.881 299.837 186.484C299.482 187.261 299.442 187.821 299.758 188.856C300.113 189.848 300.074 190.408 299.718 191.055C299.324 191.745 299.403 192.004 300.074 192.78C300.824 193.599 300.864 193.814 300.39 195.237C300.113 196.1 299.876 197.652 299.837 198.644C299.837 200.713 299.876 200.67 298.494 199.98C297.27 199.377 296.875 198.256 297.467 197.048C298.02 195.927 298.06 196.013 296.085 195.496C294.9 195.194 294.466 194.849 294.308 194.03C294.11 193.081 293.834 192.952 292.057 192.823C290.438 192.737 290.003 192.521 289.845 191.874C289.727 191.314 289.292 191.012 288.66 191.012C287.081 191.012 286.409 190.581 286.409 189.503C286.409 188.727 286.054 188.382 284.711 187.864C283.289 187.347 283.052 187.088 283.171 186.14C283.25 185.277 282.934 184.76 281.591 183.768C278.905 181.698 276.654 178.896 276.18 176.999C275.035 172.385 276.18 162.511 278.55 156.906C280.92 151.344 283.289 150.395 286.646 153.629ZM282.46 158.631C283.052 162.77 284.79 168.504 286.844 173.291C288.423 176.999 294.663 189.287 294.94 189.287C295.019 189.287 293.715 186.226 291.978 182.475C285.975 169.324 282.578 159.665 282.42 155.224C282.42 154.621 282.302 154.405 282.183 154.75C282.065 155.052 282.183 156.82 282.46 158.631Z" fill="white"/>
<path d="M340.993 158.758C342.888 161.345 343.876 163.242 344.665 165.959C345.574 168.977 345.337 175.143 344.152 178.506C343.718 179.8 342.335 183.766 341.032 187.345C338.82 193.597 338.741 193.942 338.781 197.823C338.781 201.79 338.781 201.833 338.07 200.841C337.043 199.375 334.042 192.562 332.896 189.07C332.343 187.388 331.672 184.542 331.396 182.732C330.961 179.8 330.961 178.98 331.593 175.833C332.778 169.71 337.873 156.947 339.097 156.947C339.373 156.947 340.242 157.766 340.993 158.758Z" fill="white"/>
<path d="M375.667 167.209C372.587 169.797 371.441 171.952 367.334 182.344C364.056 190.752 361.607 194.158 357.105 196.616C353.748 198.47 347.627 199.548 347.627 198.297C347.627 197.004 350.668 188.122 352.524 183.896C355.723 176.738 358.013 174.281 365.004 170.486C368.598 168.546 375.035 166.002 376.299 166.002C376.891 166.045 376.733 166.304 375.667 167.209Z" fill="white"/>
<path d="M221.645 185.448C238.588 197.391 252.331 206.834 256.004 208.99C262.837 213.043 272.671 216.449 281.28 217.786C286.612 218.605 298.539 218.519 304.384 217.614C317.456 215.544 332.78 209.68 342.021 203.212C346.247 200.28 343.522 202.738 338.625 206.274C328.12 213.906 317.851 218.519 306.161 220.847C300.04 222.098 287.757 222.184 281.873 221.02C270.222 218.735 258.848 213.906 248.659 206.877C244.433 203.988 208.612 176.824 208.612 176.523C208.612 176.221 208.296 176.048 221.645 185.448Z" fill="white"/>
<path d="M359.08 205.93C359.633 206.016 361.134 206.318 362.437 206.577C366.821 207.439 370.889 210.328 376.379 216.537C378.985 219.426 381.71 223.349 381.434 223.694C381.315 223.781 380.723 223.479 380.051 222.961C377.524 220.978 375.905 220.676 365.992 220.331C355.368 219.943 353.986 219.641 350.155 216.968C347.351 214.985 345.653 212.872 344.033 209.336L342.848 206.749L344.152 206.404C345.692 206.059 357.659 205.628 359.08 205.93Z" fill="white"/>
<path d="M315.875 270.519C317.376 271.338 319.627 273.02 320.891 274.27C323.102 276.426 323.458 276.555 325.196 275.736C325.709 275.52 326.222 275.995 327.328 277.676C328.671 279.746 328.908 279.875 330.053 279.66C331.238 279.401 331.357 279.487 332.265 281.643C333.015 283.497 333.41 283.928 334.161 283.928C335.029 283.928 335.227 284.23 335.74 286.731L336.372 289.534H338.031C339.966 289.577 339.808 289.404 340.835 291.991C341.743 294.277 342.059 294.449 343.086 293.199C344.113 291.948 345.535 292.121 346.877 293.673C348.141 295.139 348.299 295.786 347.509 295.786C346.285 295.786 342.889 297.165 341.467 298.2C340.006 299.321 339.887 299.321 338.821 298.631C337.439 297.769 336.807 297.769 336.175 298.588C335.859 299.02 334.95 299.235 333.489 299.235C331.672 299.235 331.159 299.408 330.409 300.313C329.698 301.132 329.105 301.391 327.763 301.391C326.42 301.391 325.867 301.607 325.196 302.469C324.445 303.374 324.011 303.547 321.957 303.547C319.785 303.547 319.587 303.633 319.35 304.625C319.114 305.617 318.916 305.703 316.783 305.703C314.888 305.703 314.414 305.832 314.058 306.565C313.545 307.6 312.479 307.643 310.03 306.694C308.253 306.005 308.134 306.005 307.423 306.738C306.673 307.427 306.555 307.427 304.422 306.263C302.526 305.272 302.052 305.142 301.381 305.617C300.67 306.134 300.157 305.703 295.575 300.874C292.811 297.942 288.901 294.32 286.887 292.854C284.873 291.345 282.937 289.62 282.582 289.059C280.331 285.308 284.399 279.832 293.087 274.96C299.959 271.079 306.081 269.053 310.859 269.053C312.676 269.053 313.703 269.355 315.875 270.519ZM285.899 285.006C283.925 285.653 284.28 286.084 286.255 285.481C289.098 284.661 292.574 284.489 296.523 285.006C302.842 285.782 318.482 288.801 325.669 290.612C329.342 291.56 332.423 292.25 332.502 292.164C332.699 291.991 315.559 286.903 311.886 286.084C305.172 284.575 301.262 284.187 294.312 284.316C290.481 284.403 286.729 284.704 285.899 285.006Z" fill="white"/>
<path d="M381.99 293.587C384.715 293.932 385.466 294.406 387.401 296.95C390.955 301.693 392.653 308.894 391.824 315.922L391.39 319.932L388.151 320.967C381.477 323.166 375.276 323.597 371.011 322.131C366.825 320.708 365.205 318.854 363.784 313.766L363.033 311.093L364.218 309.886L365.403 308.722H364.416C362.836 308.722 361.927 307.989 361.651 306.566C361.375 305.1 361.019 304.798 359.321 304.453C357.662 304.065 357.504 302.771 358.886 301.564L359.953 300.615L359.044 299.279C357.978 297.683 358.215 297.338 360.782 296.907C361.651 296.735 362.796 296.217 363.349 295.786C364.573 294.708 364.929 294.708 366.035 295.829C366.785 296.605 367.101 296.649 368.404 296.261C369.273 296.002 370.695 295.786 371.603 295.786C372.512 295.786 373.736 295.571 374.289 295.355C375.118 295.01 375.671 295.053 376.58 295.571C377.646 296.174 377.804 296.131 378.278 295.441C378.554 295.053 378.91 294.363 379.028 293.932C379.186 293.544 379.384 293.242 379.542 293.242C379.7 293.285 380.805 293.458 381.99 293.587Z" fill="white"/>
<path d="M418.677 316.569C421.481 317.432 423.337 319.286 424.838 322.778C426.299 326.098 426.299 326.314 424.877 328.082L424.048 329.117L425.154 328.815C426.576 328.47 427.563 329.074 428.195 330.669C428.59 331.704 429.024 332.049 430.327 332.307C432.263 332.739 432.737 334.075 431.315 335.153L430.446 335.843L431.512 337.18C432.065 337.913 432.539 338.689 432.539 338.861C432.539 339.034 431.67 339.465 430.564 339.767C429.498 340.069 428.195 340.802 427.721 341.362C426.734 342.526 425.588 342.656 424.601 341.707C424.008 341.06 423.732 341.103 421.52 341.923C420.217 342.397 418.835 342.785 418.479 342.785C418.084 342.785 417.216 343.001 416.505 343.302C415.517 343.69 414.964 343.69 414.254 343.345C413.385 342.914 413.227 343.001 412.595 344.294C411.963 345.544 411.647 345.717 409.751 345.976C407.026 346.321 405.604 345.631 402.998 342.612C399.285 338.301 396.995 331.531 396.995 324.805V321.183L399.996 319.631C406.078 316.569 414.372 315.19 418.677 316.569Z" fill="white"/>
<path d="M384.355 325.409C384.908 325.495 386.606 325.84 388.146 326.228L390.99 326.875L391.385 328.686C392.767 334.636 392.846 341.751 391.622 346.666C390.2 352.185 387.751 354.772 382.854 355.98L379.853 356.713L378.707 355.247C377.76 354.039 377.562 353.953 377.76 354.729C378.036 355.98 377.246 357.101 375.627 357.661C374.719 358.006 374.008 358.696 373.494 359.731C372.546 361.671 371.125 361.93 370.532 360.248C370.098 358.955 370.098 358.955 368.479 360.033C367.768 360.507 367.057 360.895 366.859 360.895C366.701 360.895 366.583 359.86 366.583 358.567C366.583 357.273 366.425 356.109 366.227 355.98C366.03 355.85 365.674 355.117 365.438 354.427C365.082 353.263 365.161 353.004 365.951 352.228C366.82 351.409 366.859 351.15 366.701 346.278C366.543 341.837 366.622 341.061 367.254 340.414C367.886 339.681 367.886 339.595 366.701 338.517C365.556 337.439 365.517 337.267 365.753 335.197C366.109 332.265 366.938 330.971 369.861 328.988C373.376 326.53 380.287 324.849 384.355 325.409Z" fill="white"/>
<path d="M267.142 328.685C268.405 328.987 269.511 329.375 269.63 329.461C269.748 329.591 268.879 331.402 267.774 333.428C262.363 343.13 255.096 352.184 250.673 354.685C245.973 357.358 238.667 359.299 230.531 360.032C225.792 360.463 222.435 360.118 224.212 359.385C229.781 357.057 231.4 355.461 238.983 344.768C246.131 334.635 249.133 331.746 254.82 329.591C258.335 328.254 263.745 327.866 267.142 328.685Z" fill="white"/>
<path d="M394.977 331.402C394.977 331.876 394.858 332.006 394.74 331.661C394.621 331.359 394.661 330.971 394.779 330.841C394.898 330.669 395.016 330.928 394.977 331.402Z" fill="white"/>
<path d="M395.375 333.126C395.375 333.601 395.257 333.73 395.138 333.385C395.02 333.083 395.059 332.695 395.178 332.566C395.296 332.394 395.415 332.652 395.375 333.126Z" fill="white"/>
<path d="M395.967 335.283C396.125 335.887 396.164 336.491 396.086 336.62C395.967 336.706 395.77 336.275 395.651 335.628C395.493 335.025 395.454 334.421 395.533 334.292C395.651 334.205 395.849 334.637 395.967 335.283Z" fill="white"/>
<path d="M350.394 405.003C352.092 405.693 354.976 407.806 356.279 409.358C357.069 410.264 357.503 410.436 358.451 410.264C359.557 410.005 359.754 410.178 360.426 411.557C361.058 412.808 361.413 413.066 362.203 412.98C363.072 412.851 363.348 413.153 364.02 414.662C364.572 416.042 364.967 416.473 365.481 416.257C365.994 416.085 366.192 416.386 366.389 417.68C366.903 420.828 366.942 420.957 368.245 420.655C369.312 420.44 369.47 420.526 370.023 422.121C370.733 424.061 370.931 424.148 372.313 423.156C373.261 422.509 373.34 422.509 374.564 423.846L375.828 425.269L373.735 425.872C372.59 426.174 371.128 426.778 370.496 427.166C369.549 427.77 369.193 427.813 368.561 427.381C367.613 426.735 366.587 426.692 366.587 427.295C366.587 427.511 365.718 427.726 364.651 427.726C363.388 427.726 362.637 427.942 362.519 428.33C362.4 428.632 361.492 429.063 360.544 429.192C359.557 429.365 358.53 429.796 358.253 430.141C357.898 430.615 357.345 430.745 356.318 430.572C354.778 430.313 354.225 430.572 353.83 431.736C353.633 432.34 353.277 432.426 352.053 432.211C350.947 432.038 350.434 432.124 350.039 432.642C349.407 433.461 348.736 433.504 346.958 432.814C345.971 432.426 345.458 432.426 344.905 432.771C344.312 433.159 343.917 433.073 342.89 432.426C342.061 431.866 341.232 431.65 340.639 431.823C339.81 432.038 339.218 431.564 336.571 428.503C334.913 426.519 331.99 423.673 330.095 422.164C326.58 419.318 325.987 418.37 326.501 416.171C327.725 410.738 344.826 402.718 350.394 405.003ZM329.344 415.998C328.752 416.171 330.647 416.3 333.491 416.3C337.993 416.3 339.77 416.559 346.05 417.939C350.078 418.844 355.37 420.138 357.859 420.871C360.347 421.561 362.44 422.078 362.519 421.992C362.795 421.647 350.118 417.68 345.655 416.688C340.244 415.524 332.385 415.179 329.344 415.998Z" fill="white"/>
</g>
</svg>
