<svg width="148" height="45" viewBox="0 0 148 45" fill="none" xmlns="http://www.w3.org/2000/svg">
<mask id="mask0_493_359" style="mask-type:alpha" maskUnits="userSpaceOnUse" x="0" y="0" width="148" height="45">
<rect width="148" height="45" fill="#C4C4C4"/>
</mask>
<g mask="url(#mask0_493_359)">
<path d="M67.8775 13.9145H62.1135V31.3068H60.1875V4.19531H66.9769V4.59625H62.1135V13.5136H67.8775V13.9145Z" fill="#1D1D1B"/>
<path d="M71.2332 31.3053H69.2656V4.15234H71.1916L71.2332 31.3053Z" fill="#1D1D1B"/>
<path d="M81.2838 31.3053H73.5938V4.15234H75.5197V30.9044H81.2838V31.3053Z" fill="#1D1D1B"/>
<path d="M91.8632 4.55328H87.9836V31.3053H86.0576V4.55328H82.1641V4.15234H91.8632V4.55328Z" fill="#1D1D1B"/>
<path d="M100.848 31.3053H93.1719V4.15234H100.003V4.55328H95.084V13.4706H100.848V13.8716H95.084V30.9044H100.848V31.3053Z" fill="#1D1D1B"/>
<path d="M128.075 34.1114C128.948 34.7612 129.765 35.0654 129.765 36.0193C129.765 38.6323 128.38 39.6001 125.608 39.6001C120.99 39.6001 117.429 37.0885 114.926 32.0653L112.916 25.9959C111.725 23.3138 109.979 21.9728 107.679 21.9728H104.506V31.291H102.594V4.15188H107.679C110.384 4.08425 113.018 5.01466 115.078 6.76487C116.029 7.5103 116.799 8.46103 117.329 9.54572C117.86 10.6304 118.137 11.8209 118.14 13.0278C118.112 14.9847 117.385 16.8674 116.089 18.3367C114.662 20.0938 112.67 21.305 110.45 21.7654C112.226 22.6811 113.62 24.1945 114.385 26.0374C115.133 27.7656 115.895 29.4937 116.671 31.2081C117.708 33.4225 119.234 35.3745 121.133 36.918C122.503 38.1258 124.252 38.8199 126.08 38.8812C126.858 38.9021 127.619 38.6474 128.227 38.1622C128.592 37.9115 128.89 37.5745 129.093 37.1813C129.296 36.7882 129.398 36.351 129.391 35.9087C129.391 35.0515 128.684 34.6783 127.909 34.1252L128.075 34.1114ZM116.214 13.0278C116.231 11.9222 116.02 10.8249 115.593 9.80442C115.167 8.78396 114.534 7.8622 113.734 7.09668C112.944 6.30365 112.002 5.67808 110.964 5.25756C109.926 4.83704 108.813 4.63024 107.693 4.64959H104.506V21.5027H107.693C108.815 21.5184 109.929 21.3073 110.967 20.882C112.005 20.4567 112.947 19.826 113.734 19.028C114.535 18.2489 115.168 17.3149 115.594 16.2832C116.021 15.2514 116.232 14.1437 116.214 13.0278Z" fill="#1D1D1B"/>
<path d="M18.8036 37.0014L18.3048 38.3839H18L19.3856 34.416H19.7458L21.2423 38.3148H20.9513L20.4525 36.9322L18.8036 37.0014ZM20.3417 36.7248C19.9121 35.5773 19.6904 35.0105 19.6073 34.7478C19.5103 35.052 19.2609 35.7432 18.9145 36.7248H20.3417Z" fill="#706F6F"/>
<path d="M24.2031 34.4152H25.4917C25.7408 34.4064 25.989 34.4505 26.2197 34.5446C26.4504 34.6387 26.6585 34.7807 26.8301 34.961C27.0017 35.1414 27.133 35.3561 27.2152 35.5909C27.2973 35.8257 27.3286 36.0753 27.3069 36.3231C27.3321 36.5756 27.3039 36.8305 27.224 37.0714C27.1442 37.3124 27.0145 37.5339 26.8434 37.7216C26.6722 37.9093 26.4635 38.059 26.2306 38.161C25.9978 38.2631 25.746 38.3152 25.4917 38.3139H24.2031V34.4152ZM24.508 38.0374H25.4502C25.6669 38.0429 25.8823 38.0018 26.0817 37.9169C26.2812 37.8319 26.4599 37.7051 26.6058 37.5451C26.7517 37.385 26.8614 37.1955 26.9274 36.9894C26.9934 36.7834 27.0141 36.5655 26.9882 36.3507C27.0122 36.1376 26.9899 35.9219 26.9228 35.7181C26.8558 35.5144 26.7456 35.3275 26.5996 35.17C26.4537 35.0126 26.2755 34.8884 26.0771 34.8059C25.8788 34.7233 25.6649 34.6844 25.4502 34.6917H24.508V38.0374Z" fill="#706F6F"/>
<path d="M31.3846 38.3562L29.9297 34.416H30.2622L31.0105 36.4483C31.2321 37.0428 31.4816 37.6926 31.5647 38.0244C31.6478 37.7341 31.9111 37.0428 32.1328 36.476L32.9226 34.416H33.2413L31.7448 38.3562H31.3846Z" fill="#706F6F"/>
<path d="M36.1179 37.0006L35.633 38.3831H35.3281L36.7137 34.4844H37.074L38.5566 38.3831H38.2379L37.7252 37.0006H36.1179ZM37.6698 36.7241C37.2402 35.5766 37.0047 35.0097 36.9354 34.7471C36.8523 35.0512 36.589 35.7425 36.2426 36.7241H37.6698Z" fill="#706F6F"/>
<path d="M41.5547 38.3562V34.416H41.9981C42.6077 35.3561 44.021 37.5267 44.2704 37.9415C44.2704 37.3885 44.2704 36.8078 44.2704 36.1857V34.416H44.5753V38.3148H44.1596C43.5777 37.4023 42.1366 35.1488 41.8457 34.7202C41.8457 35.2317 41.8457 35.7986 41.8457 36.5036V38.3148L41.5547 38.3562Z" fill="#706F6F"/>
<path d="M50.8086 37.3058C50.739 37.635 50.5513 37.9275 50.281 38.1286C50.0106 38.3297 49.676 38.4254 49.3399 38.398C48.2314 38.398 47.6356 37.5132 47.6356 36.4071C47.6088 36.1622 47.6328 35.9144 47.706 35.6791C47.7793 35.4438 47.9002 35.226 48.0613 35.0393C48.2225 34.8526 48.4203 34.701 48.6427 34.5938C48.865 34.4866 49.107 34.4262 49.3538 34.4163C49.6938 34.3899 50.0316 34.4895 50.3026 34.6961C50.5736 34.9027 50.7587 35.2018 50.8225 35.5361H50.5177C50.4505 35.2807 50.2961 35.0567 50.0811 34.9027C49.8661 34.7487 49.6039 34.6745 49.3399 34.6928C48.37 34.6928 47.9543 35.5776 47.9543 36.421C47.9543 37.2643 48.3561 38.1353 49.3399 38.1353C49.5957 38.1486 49.8485 38.0752 50.0572 37.9272C50.266 37.7791 50.4185 37.565 50.49 37.3196L50.8086 37.3058Z" fill="#706F6F"/>
<path d="M56.1769 36.4345H54.1955V38.0797H56.3708V38.3562H53.8906V34.416H56.2877V34.6925H54.1955V36.0751H56.1769V36.4345Z" fill="#706F6F"/>
<path d="M59.375 34.4152H60.6636C60.9127 34.4064 61.1608 34.4505 61.3916 34.5446C61.6223 34.6387 61.8304 34.7807 62.002 34.961C62.1736 35.1414 62.3048 35.3561 62.387 35.5909C62.4692 35.8257 62.5005 36.0753 62.4787 36.3231C62.504 36.5756 62.4757 36.8305 62.3959 37.0714C62.3161 37.3124 62.1864 37.5339 62.0152 37.7216C61.8441 37.9093 61.6353 38.059 61.4025 38.161C61.1696 38.2631 60.9179 38.3152 60.6636 38.3139H59.375V34.4152ZM59.666 38.0374H60.6082C60.8256 38.0453 61.0421 38.0058 61.2427 37.9216C61.4432 37.8374 61.623 37.7107 61.7694 37.5501C61.9158 37.3895 62.0253 37.199 62.0904 36.9919C62.1555 36.7847 62.1745 36.5659 62.1462 36.3507C62.1702 36.1376 62.1479 35.9219 62.0809 35.7181C62.0138 35.5144 61.9036 35.3275 61.7576 35.17C61.6117 35.0126 61.4335 34.8884 61.2352 34.8059C61.0368 34.7233 60.823 34.6844 60.6082 34.6917H59.666V38.0374Z" fill="#706F6F"/>
<path d="M71.1925 36.4345H69.2665V38.0797H71.4419V38.3562H68.9062V34.416H71.2895V34.6925H69.2665V36.0751H71.2479L71.1925 36.4345Z" fill="#706F6F"/>
<path d="M74.4472 37.3057C74.4915 37.5587 74.6308 37.7854 74.8368 37.9395C75.0427 38.0937 75.2998 38.1636 75.5557 38.1352C76.2624 38.1352 76.5395 37.7757 76.5395 37.3471C76.5395 36.9185 76.3455 36.642 75.4864 36.4208C74.6274 36.1996 74.3087 35.9508 74.3087 35.3978C74.3087 34.8447 74.6828 34.4023 75.5141 34.4023C75.8152 34.3671 76.118 34.452 76.3567 34.6384C76.5955 34.8248 76.7508 35.0977 76.7889 35.3978H76.4702C76.4327 35.1762 76.3108 34.9778 76.13 34.8438C75.9493 34.7098 75.7237 34.6507 75.5003 34.6788C74.9322 34.6788 74.6274 34.9415 74.6274 35.3701C74.6274 35.7987 74.8768 35.9784 75.5973 36.1443C76.7057 36.4208 76.8582 36.8632 76.8582 37.3333C76.8582 37.8034 76.4425 38.3979 75.5418 38.3979C75.379 38.4171 75.2139 38.4042 75.056 38.3597C74.8982 38.3152 74.7506 38.2401 74.6219 38.1386C74.4932 38.0371 74.3858 37.9113 74.3059 37.7684C74.226 37.6255 74.1752 37.4682 74.1562 37.3057H74.4472Z" fill="#706F6F"/>
<path d="M80.7293 34.734H79.3438V34.416H82.2812V34.6925H80.9649V38.3148H80.6601L80.7293 34.734Z" fill="#706F6F"/>
<path d="M85.1562 34.416H85.4611V36.1165H87.7889V34.416H88.0937V38.3148H87.7889V36.4345H85.4611V38.3562H85.1562V34.416Z" fill="#706F6F"/>
<path d="M93.7792 36.4345H91.7839V38.0797H93.9593V38.3562H91.4375V34.416H93.8346V34.6925H91.7839V36.0751H93.7792V36.4345Z" fill="#706F6F"/>
<path d="M97.9481 34.734H96.5625V34.416H99.5V34.6925H98.1836V38.3148H97.9481V34.734Z" fill="#706F6F"/>
<path d="M102.675 34.416V38.3148H102.383V34.416H102.675Z" fill="#706F6F"/>
<path d="M108.951 37.3058C108.881 37.635 108.694 37.9275 108.423 38.1286C108.153 38.3297 107.818 38.4254 107.482 38.398C106.36 38.398 105.778 37.5132 105.778 36.4071C105.749 36.163 105.771 35.9155 105.843 35.6802C105.914 35.4449 106.034 35.227 106.194 35.04C106.354 34.8531 106.551 34.7011 106.773 34.5938C106.994 34.4865 107.236 34.426 107.482 34.4163C107.822 34.3899 108.16 34.4895 108.431 34.6961C108.702 34.9027 108.887 35.2018 108.951 35.5361H108.646C108.584 35.2779 108.431 35.0506 108.215 34.8957C107.998 34.7409 107.733 34.6689 107.468 34.6928C106.498 34.6928 106.083 35.5776 106.083 36.421C106.083 37.2643 106.485 38.1353 107.468 38.1353C107.724 38.1486 107.977 38.0752 108.186 37.9272C108.394 37.7791 108.547 37.565 108.618 37.3196L108.951 37.3058Z" fill="#706F6F"/>
<path d="M112.079 37.3057C112.123 37.5587 112.263 37.7854 112.469 37.9395C112.674 38.0937 112.932 38.1636 113.187 38.1352C113.894 38.1352 114.171 37.7757 114.171 37.3471C114.171 36.9185 113.977 36.642 113.118 36.4208C112.259 36.1996 111.94 35.9508 111.94 35.3978C111.94 34.8447 112.315 34.4023 113.146 34.4023C113.447 34.3671 113.75 34.452 113.989 34.6384C114.227 34.8248 114.383 35.0977 114.421 35.3978H114.102C114.064 35.1762 113.943 34.9778 113.762 34.8438C113.581 34.7098 113.355 34.6507 113.132 34.6788C112.564 34.6788 112.259 34.9415 112.259 35.3701C112.259 35.7987 112.509 35.9784 113.229 36.1443C114.338 36.4208 114.49 36.8632 114.49 37.3333C114.49 37.8034 114.074 38.3979 113.104 38.3979C112.941 38.4171 112.776 38.4042 112.619 38.3597C112.461 38.3152 112.313 38.2401 112.184 38.1386C112.056 38.0371 111.948 37.9113 111.868 37.7684C111.789 37.6255 111.738 37.4682 111.719 37.3057H112.079Z" fill="#706F6F"/>
<path d="M48.329 8.14841C47.0499 6.89245 45.5344 5.90138 43.8698 5.23226C42.2052 4.56314 40.4244 4.2292 38.6299 4.24966C36.8406 4.22116 35.0654 4.56969 33.4203 5.27248C31.7753 5.97527 30.2973 7.01651 29.0831 8.32814L28.3765 9.11619V11.7568C28.9057 10.6318 29.5812 9.58121 30.3856 8.6323C31.3842 7.40577 32.6393 6.41165 34.063 5.7194C35.4867 5.02716 37.0448 4.65349 38.6283 4.62453C40.2118 4.59556 41.7825 4.91199 43.2308 5.5517C44.679 6.19141 45.9697 7.13896 47.0127 8.32814C49.3585 10.8429 50.6307 14.1702 50.5598 17.605C50.6398 21.0868 49.4256 24.4749 47.1513 27.1168C46.1656 28.3543 44.9117 29.353 43.4839 30.0378C42.056 30.7226 40.4912 31.0758 38.907 31.0708C37.3109 31.0778 35.7318 30.7432 34.2762 30.0898C32.8206 29.4363 31.5222 28.4791 30.4687 27.2827C29.5907 26.3447 28.849 25.2883 28.2656 24.1443V26.6744C28.5427 26.9785 28.8199 27.2689 29.1247 27.5592C30.413 28.8222 31.9399 29.8173 33.6168 30.4866C35.2938 31.1559 37.0872 31.4861 38.8931 31.458C40.6835 31.4773 42.4576 31.1176 44.0984 30.4027C45.7392 29.6878 47.2095 28.6338 48.4122 27.3103C49.6828 26.0249 50.684 24.4996 51.3572 22.8238C52.0305 21.1479 52.3624 19.3549 52.3334 17.5497C52.3593 15.7907 52.0165 14.0458 51.3269 12.4268C50.6373 10.8078 49.6162 9.35052 48.329 8.14841Z" fill="#1D1D1B"/>
<path d="M39.4054 27.8219C36.7907 27.8219 34.2832 26.7855 32.4344 24.9408C30.5855 23.096 29.5469 20.594 29.5469 17.9852C29.5469 15.3763 30.5855 12.8743 32.4344 11.0296C34.2832 9.1848 36.7907 8.14844 39.4054 8.14844" fill="#00ABA0"/>
<path d="M28.0019 31.3742L18.9817 9.9449V31.4157H18.5938V4L27.5308 26.1206L27.7387 26.6183L28.0019 27.2819V4.15208H28.3345V31.3742" fill="#1D1D1B"/>
</g>
</svg>
