<svg width="175" height="175" viewBox="0 0 175 175" fill="none" xmlns="http://www.w3.org/2000/svg">
<path fill-rule="evenodd" clip-rule="evenodd" d="M62.9055 88.797C74.431 90.8107 83.1965 100.866 83.1965 112.974C83.1965 126.529 72.2073 137.519 58.6525 137.519C49.8918 137.519 42.4445 132.773 37.8625 126.028C21.0255 101.25 58.173 58.916 67.2275 37.916L80.537 44.1768L62.907 88.7968L62.9055 88.797ZM121.911 88.797C133.438 90.8107 142.202 100.866 142.202 112.974C142.202 126.529 131.212 137.519 117.658 137.519C108.899 137.519 101.452 132.773 96.8675 126.028C80.0305 101.25 117.183 58.916 126.233 37.916L139.54 44.1768L121.911 88.797Z" fill="#BDE1E0"/>
</svg>
