<svg width="175" height="175" viewBox="0 0 175 175" fill="none" xmlns="http://www.w3.org/2000/svg">
<path fill-rule="evenodd" clip-rule="evenodd" d="M112.094 86.203C100.569 84.1893 91.8035 74.1337 91.8035 62.0263C91.8035 48.4705 102.793 37.4813 116.347 37.4813C125.108 37.4813 132.556 42.2273 137.138 48.9715C153.975 73.7497 116.827 116.084 107.772 137.084L94.463 130.823L112.093 86.2032L112.094 86.203ZM53.0895 86.203C41.5622 84.1893 32.7985 74.1337 32.7985 62.0263C32.7985 48.4705 43.7877 37.4813 57.3425 37.4813C66.1012 37.4813 73.5485 42.2273 78.1325 48.9715C94.9695 73.7497 57.817 116.084 48.7675 137.084L35.46 130.823L53.0895 86.203Z" fill="#BDE1E0"/>
</svg>
