<svg width="80" height="152" viewBox="0 0 80 152" fill="none" xmlns="http://www.w3.org/2000/svg">
<rect width="80" height="152" fill="#101820"/>
<path d="M59.9765 101.926C60.0686 101.558 59.8845 101.19 59.5164 101.052C59.1484 100.914 58.7804 101.144 58.6424 101.512C57.0786 106.525 50.5472 111.907 40.014 111.907C30.0328 111.907 22.7194 107.859 21.3855 101.558C21.2934 101.19 20.9254 100.96 20.5577 101.006C20.1897 101.098 19.9597 101.466 20.0059 101.834C20.6498 104.777 22.3978 107.307 25.0656 109.239L20.1901 115.127C19.9601 115.403 20.0063 115.863 20.2822 116.093C20.4202 116.185 20.5581 116.277 20.7423 116.277C20.9261 116.277 21.1562 116.185 21.2483 116.047L26.308 110.021C27.918 110.987 29.8036 111.769 31.8737 112.321L29.16 119.727C29.0221 120.095 29.2059 120.463 29.5739 120.601C29.666 120.646 29.7119 120.646 29.804 120.646C30.0799 120.646 30.3558 120.463 30.4479 120.186L33.2078 112.643C35.0937 113.057 37.1177 113.287 39.3253 113.287V121.428C39.3253 121.796 39.6474 122.118 40.0151 122.118C40.3831 122.118 40.7049 121.796 40.7049 121.428L40.7043 113.241C42.774 113.195 44.7059 112.965 46.4997 112.551L49.2597 120.14C49.3518 120.416 49.6277 120.6 49.9036 120.6C49.9957 120.6 50.0416 120.6 50.1337 120.555C50.5017 120.417 50.6855 120.049 50.5475 119.681L47.8339 112.183C49.7198 111.631 51.4216 110.895 52.8936 110.021L57.9071 116.001C58.0451 116.185 58.2292 116.231 58.459 116.231C58.5969 116.231 58.7811 116.185 58.9191 116.047C59.195 115.817 59.2412 115.357 59.0111 115.081L54.0894 109.285C57.1711 107.169 59.1491 104.502 59.9769 101.926L59.9765 101.926Z" fill="white"/>
</svg>
