<svg width="61" height="152" viewBox="0 0 61 152" fill="none" xmlns="http://www.w3.org/2000/svg">
<rect width="61" height="152" fill="#101820"/>
<path d="M24.3961 120.597L24.3959 120.597C24.3041 120.399 24.2751 120.179 24.3131 119.965L24.3132 119.965C24.351 119.751 24.4538 119.554 24.6076 119.4L24.6078 119.4L27.4479 116.56L27.4479 116.56L27.4486 116.559C27.6473 116.359 27.9179 116.246 28.2001 116.246C28.4825 116.246 28.7531 116.359 28.9518 116.559L28.9522 116.56L31.9491 119.57L32.1262 119.748L32.3034 119.57L35.227 116.633H35.2276L35.3009 116.559C35.4997 116.359 35.7703 116.246 36.0524 116.246C36.3349 116.246 36.6054 116.359 36.8042 116.559L36.8045 116.56L39.8014 119.57L39.9786 119.748L40.1558 119.57L43.0794 116.633H43.08L43.1533 116.559C43.352 116.359 43.6226 116.246 43.9048 116.246C44.1872 116.246 44.4578 116.359 44.6565 116.559L44.6573 116.56L47.4973 119.4L47.4975 119.4C47.6514 119.554 47.7541 119.751 47.7919 119.965L47.792 119.965C47.83 120.179 47.801 120.399 47.7092 120.597L47.709 120.597C44.9152 126.626 40.5465 130.15 36.0526 130.15H36.0525C31.5587 130.15 27.1903 126.627 24.3961 120.597ZM26.7146 120.238L26.5858 120.367L26.6689 120.529C29.0285 125.13 32.5237 128.033 36.0525 128.033C39.5823 128.033 43.0246 125.128 45.435 120.531L45.5204 120.368L45.3904 120.238L44.0816 118.929L43.9045 118.752L43.7277 118.93L40.7308 121.94L40.7304 121.94C40.5317 122.141 40.2611 122.253 39.9787 122.253C39.6965 122.253 39.426 122.141 39.2272 121.94L39.2269 121.94L36.2299 118.93L36.0528 118.752L35.8756 118.93L32.952 121.866H32.9514L32.8781 121.94C32.6794 122.141 32.4088 122.253 32.1263 122.253C31.8442 122.253 31.5736 122.141 31.3748 121.94L31.3745 121.94L28.3776 118.93L28.2008 118.752L28.0237 118.929L26.7146 120.238Z" fill="white" stroke="#101820" stroke-width="0.5"/>
<path d="M26.0353 130.152H26.9447C27.3199 130.122 27.6517 129.897 27.8167 129.558L27.8168 129.558C27.9831 129.217 27.9549 128.814 27.7428 128.499L26.0353 130.152ZM26.0353 130.152L26.0352 130.151H25.8022C21.5607 130.151 18.0306 128.599 15.5592 125.903C13.0863 123.206 11.6565 119.344 11.6563 114.697C11.6877 110.85 12.5362 107.054 14.1459 103.56C14.2917 103.249 14.5798 103.028 14.9182 102.968L14.9182 102.968L14.9214 102.967C15.263 102.902 15.6149 103.008 15.8626 103.252L17.7725 105.175L17.9497 105.353L18.127 105.175L21.124 102.165L21.1243 102.165C21.323 101.964 21.5936 101.852 21.8761 101.852C22.1585 101.852 22.4291 101.964 22.6278 102.165L22.6282 102.165L25.6251 105.175L25.8022 105.353L25.9794 105.175L28.9763 102.165L28.9767 102.165C29.1754 101.964 29.446 101.852 29.7284 101.852C30.0109 101.852 30.2815 101.964 30.4802 102.165L30.4805 102.165L33.4774 105.175L33.6548 105.353L33.832 105.175L35.7274 103.266L35.741 103.253C35.9888 103.008 36.3412 102.902 36.6831 102.967L36.6863 102.968C37.0247 103.028 37.3128 103.249 37.4586 103.56C39.0534 107.027 39.9014 110.79 39.9482 114.606C39.9479 114.887 39.8364 115.155 39.6382 115.354C39.4397 115.552 39.1703 115.664 38.8895 115.664C38.6088 115.664 38.3393 115.552 38.1408 115.354C37.9423 115.155 37.8308 114.886 37.8308 114.605L37.8308 114.602C37.7963 111.739 37.2686 108.904 36.271 106.22L36.1346 105.854L35.8591 106.132L34.4064 107.597C34.2077 107.798 33.9371 107.911 33.6546 107.911C33.3721 107.911 33.1016 107.798 32.9028 107.597L32.9025 107.597L29.9056 104.587L29.7284 104.409L29.5513 104.587L26.5544 107.597L26.554 107.597C26.3553 107.798 26.0847 107.911 25.8022 107.911C25.5198 107.911 25.2492 107.798 25.0505 107.597L25.0501 107.597L22.0532 104.587L21.8761 104.409L21.6989 104.587L18.702 107.597L18.7017 107.597C18.5029 107.798 18.2324 107.911 17.9499 107.911C17.6675 107.911 17.3969 107.798 17.1982 107.597C17.1982 107.597 17.1981 107.597 17.1981 107.597L15.7454 106.132L15.4703 105.854L15.3336 106.22C14.322 108.932 13.7937 111.8 13.7737 114.695V114.697C13.7737 118.717 14.9429 122.053 17.0425 124.387C19.1446 126.724 22.1596 128.034 25.8022 128.034H26.7706H26.7794L26.7881 128.033C27.1666 128.007 27.5302 128.184 27.7427 128.499L26.0353 130.152Z" fill="white" stroke="#101820" stroke-width="0.5"/>
</svg>
