<svg width="80" height="152" viewBox="0 0 80 152" fill="none" xmlns="http://www.w3.org/2000/svg">
<rect width="80" height="152" fill="#101820"/>
<path d="M42.6831 100.321C42.6831 101.098 42.0531 101.728 41.2759 101.728C40.4988 101.728 39.8687 101.098 39.8687 100.321C39.8687 99.5437 40.4988 98.9137 41.2759 98.9137C42.0531 98.9137 42.6831 99.5437 42.6831 100.321Z" fill="white" stroke="white" stroke-width="1.3"/>
<path d="M42.6835 116.579V127.1H39.8691V116.579V116.104L39.4167 115.96C38.5045 115.669 37.6751 115.164 36.9976 114.488C36.9975 114.488 36.9975 114.488 36.9974 114.488C36.9974 114.488 36.9973 114.488 36.9973 114.487L34.9817 112.472L36.97 110.484L38.9858 112.5L38.9863 112.5C39.5941 113.107 40.4177 113.447 41.2763 113.447C42.1349 113.447 42.9585 113.107 43.5663 112.5L43.5668 112.5L45.5826 110.484L47.5709 112.472L45.5552 114.488C45.5552 114.488 45.5551 114.488 45.555 114.488C44.8777 115.164 44.0483 115.669 43.1361 115.96L42.6835 116.104V116.579Z" fill="white" stroke="#101820" stroke-width="1.3"/>
<path d="M54.5986 105.031L54.5988 105.03L54.5931 105.018C53.0344 101.666 52.2222 98.0163 52.2125 94.3199V91.3707H55.0337L55.0337 94.2933L55.0337 94.2943C55.0389 97.5872 55.7606 100.839 57.1486 103.825L57.4476 104.505L57.4505 104.511L57.4535 104.518C59.0682 107.981 59.8799 111.764 59.8278 115.584C59.7757 119.403 58.8618 123.161 57.1544 126.578C57.1538 126.579 57.1532 126.58 57.1526 126.581L56.8853 127.1H53.7319L54.6331 125.298L54.6333 125.297C56.1479 122.261 56.958 118.923 57.0032 115.53C57.0484 112.14 56.3287 108.783 54.8975 105.71L54.5986 105.031Z" fill="white" stroke="#101820" stroke-width="1.3"/>
<path d="M27.5245 94.3218V94.3207V91.3707H30.3389V94.3196C30.3286 98.0161 29.5163 101.666 27.9583 105.018L27.9581 105.018L27.9528 105.031L27.6539 105.71C26.2217 108.783 25.5008 112.139 25.5448 115.529C25.5888 118.922 26.3976 122.26 27.9111 125.297L27.9115 125.298L28.8126 127.1H25.6591L25.4056 126.609C25.405 126.608 25.4044 126.606 25.4038 126.605C23.6964 123.189 22.7826 119.431 22.7305 115.611C22.6784 111.791 23.49 108.008 25.1048 104.545L25.1078 104.539L25.1106 104.532L25.4096 103.853C26.7974 100.867 27.5191 97.6146 27.5245 94.3218Z" fill="white" stroke="#101820" stroke-width="1.3"/>
</svg>
