<svg width="80" height="152" viewBox="0 0 80 152" fill="none" xmlns="http://www.w3.org/2000/svg">
<rect width="80" height="152" fill="#101820"/>
<path d="M52.3662 112.54L53.8964 110.143C56.1874 111.77 56.6303 113.459 56.6303 114.561C56.6303 116.98 54.7069 118.935 51.5134 120.309C48.347 121.673 44.0988 122.381 39.8503 122.381C35.6018 122.381 31.3537 121.673 28.1872 120.309C24.9937 118.935 23.0703 116.98 23.0703 114.561C23.0703 113.459 23.5132 111.77 25.8035 110.144L27.335 112.552C26.986 112.807 26.6888 113.073 26.4585 113.339C26.1543 113.691 25.9103 114.11 25.9103 114.549C25.9103 114.867 26.0325 115.174 26.2113 115.45C26.3919 115.729 26.6483 116.005 26.9642 116.273C27.596 116.808 28.5103 117.344 29.6794 117.823C32.0217 118.781 35.4476 119.529 39.8503 119.529C44.253 119.529 47.6789 118.781 50.0212 117.823C51.1903 117.344 52.1046 116.808 52.7365 116.273C53.0523 116.005 53.3087 115.729 53.4893 115.45C53.6681 115.174 53.7903 114.867 53.7903 114.549C53.7903 114.109 53.5482 113.687 53.2433 113.332C53.0129 113.063 52.7156 112.796 52.3662 112.54Z" fill="white" stroke="#101820"/>
<path d="M20.6095 122.705C25.421 126.031 32.4007 127.861 39.8486 127.861C47.2963 127.861 54.2758 126.031 59.0932 122.699L60.754 125.003C55.5133 128.616 47.9369 130.701 39.8486 130.701C31.7607 130.701 24.1848 128.616 18.9441 125.004L20.6095 122.705Z" fill="white" stroke="#101820"/>
<path d="M40.1885 97.3986L39.8511 97.0893L39.5133 97.3982C38.3034 98.5042 36.9967 99.8745 35.9881 101.291C34.9923 102.689 34.2306 104.21 34.2306 105.601C34.2306 107.091 34.8227 108.521 35.8767 109.575C36.9306 110.629 38.3601 111.221 39.8506 111.221C41.3411 111.221 42.7706 110.629 43.8246 109.575C44.8785 108.521 45.4706 107.091 45.4706 105.601C45.4706 104.21 44.7088 102.691 43.713 101.293C42.7045 99.8777 41.3979 98.5075 40.1885 97.3986ZM39.8506 93.4235C39.8762 93.4429 39.9032 93.4635 39.9317 93.4853C40.1719 93.6692 40.5165 93.9398 40.9305 94.2849C41.7594 94.9756 42.8631 95.9612 43.9651 97.1419C46.1958 99.532 48.3106 102.607 48.3106 105.601C48.3106 107.845 47.4193 109.996 45.8327 111.583C44.2462 113.169 42.0944 114.061 39.8506 114.061C37.6069 114.061 35.4551 113.169 33.8685 111.583C32.2819 109.996 31.3906 107.845 31.3906 105.601C31.3906 102.607 33.5055 99.532 35.7362 97.1419C36.8381 95.9612 37.9418 94.9756 38.7707 94.2849C39.1848 93.9398 39.5293 93.6692 39.7695 93.4853C39.798 93.4635 39.8251 93.4429 39.8506 93.4235Z" fill="white" stroke="#101820"/>
</svg>
