<svg width="61" height="152" viewBox="0 0 61 152" fill="none" xmlns="http://www.w3.org/2000/svg">
<rect width="61" height="152" fill="#101820"/>
<path d="M39.0996 116.439L40.3812 114.431C42.2243 115.696 42.5919 117.036 42.5919 117.922C42.5919 119.814 41.087 121.311 38.6786 122.348C36.2838 123.379 33.0797 123.912 29.8819 123.912C26.684 123.912 23.4799 123.379 21.0851 122.348C18.6768 121.311 17.1719 119.814 17.1719 117.922C17.1719 117.036 17.5394 115.696 19.3822 114.431L20.6644 116.448C20.3668 116.656 20.1181 116.873 19.9326 117.087C19.7115 117.343 19.5519 117.628 19.5519 117.912C19.5519 118.119 19.6315 118.326 19.7576 118.521C19.8845 118.717 20.0675 118.915 20.298 119.11C20.7591 119.5 21.4324 119.897 22.301 120.252C24.0404 120.964 26.5933 121.522 29.8819 121.522C33.1704 121.522 35.7234 120.964 37.4627 120.252C38.3314 119.897 39.0047 119.5 39.4657 119.11C39.6962 118.915 39.8792 118.717 40.0062 118.521C40.1323 118.326 40.2119 118.119 40.2119 117.912C40.2119 117.627 40.0532 117.339 39.8318 117.081C39.6462 116.865 39.3975 116.647 39.0996 116.439Z" fill="white" stroke="#101820" stroke-width="0.5"/>
<path d="M15.426 123.857C19.0106 126.377 24.2636 127.772 29.8845 127.772C35.5053 127.772 40.7582 126.377 44.3474 123.852L45.7393 125.784C41.7794 128.556 36.0233 130.152 29.8845 130.152C23.7459 130.152 17.99 128.556 14.0301 125.784L15.426 123.857Z" fill="white" stroke="#101820" stroke-width="0.5"/>
<path d="M30.053 105.142L29.8843 104.987L29.7154 105.142C28.8121 105.968 27.8387 106.989 27.089 108.042C26.3457 109.085 25.7941 110.199 25.7941 111.202C25.7941 112.286 26.225 113.327 26.992 114.094C27.759 114.861 28.7993 115.292 29.8841 115.292C30.9688 115.292 32.0091 114.861 32.7761 114.094C33.5432 113.327 33.9741 112.286 33.9741 111.202C33.9741 110.199 33.4224 109.086 32.6791 108.043C31.9294 106.991 30.9561 105.97 30.053 105.142ZM29.8841 101.912C29.9227 101.941 29.9685 101.976 30.0209 102.016C30.2022 102.155 30.462 102.359 30.774 102.619C31.3985 103.139 32.2303 103.882 33.0613 104.772C34.7366 106.567 36.3541 108.905 36.3541 111.202C36.3541 112.918 35.6724 114.563 34.459 115.777C33.2457 116.99 31.6 117.672 29.8841 117.672C28.1681 117.672 26.5224 116.99 25.3091 115.777C24.0957 114.563 23.4141 112.918 23.4141 111.202C23.4141 108.905 25.0315 106.567 26.7068 104.772C27.5378 103.882 28.3697 103.139 28.9941 102.619C29.3061 102.359 29.5659 102.155 29.7473 102.016C29.7996 101.976 29.8454 101.941 29.8841 101.912Z" fill="white" stroke="#101820" stroke-width="0.5"/>
</svg>
