<svg width="61" height="152" viewBox="0 0 61 152" fill="none" xmlns="http://www.w3.org/2000/svg">
<rect width="61" height="152" fill="#101820"/>
<path d="M44.3346 118.246L40.7147 113.983C42.9893 112.396 44.4575 110.406 45.0779 108.475L45.1098 108.376L45.0964 108.372C45.1265 108.081 44.9647 107.805 44.6724 107.695L44.6724 107.695C44.3311 107.567 44.0055 107.786 43.8882 108.099L43.888 108.099L43.8864 108.104C42.73 111.811 37.8795 115.83 30.0105 115.83C22.5388 115.83 17.1221 112.801 16.137 108.148L16.137 108.148L16.1361 108.144C16.0539 107.815 15.728 107.615 15.4058 107.655L15.4057 107.654L15.394 107.657C15.0653 107.74 14.8647 108.066 14.9052 108.388L14.9048 108.388L14.9067 108.397C15.3885 110.599 16.6845 112.494 18.6544 113.947L15.0658 118.281C15.0657 118.281 15.0657 118.281 15.0657 118.281C14.8571 118.532 14.8992 118.939 15.1476 119.147L15.1472 119.147L15.1561 119.153L15.1626 119.157C15.262 119.224 15.3877 119.308 15.5567 119.308C15.6409 119.308 15.7321 119.287 15.8124 119.252C15.8896 119.218 15.9668 119.166 16.016 119.096L19.7529 114.645C20.9254 115.339 22.2859 115.903 23.7738 116.309L21.7764 121.76C21.7763 121.76 21.7763 121.76 21.7762 121.76C21.6528 122.09 21.82 122.419 22.1405 122.542C22.1795 122.561 22.2137 122.573 22.2503 122.579C22.2844 122.585 22.3177 122.585 22.3491 122.585H22.353C22.6002 122.585 22.8465 122.422 22.9303 122.173L24.9698 116.598C26.3385 116.893 27.8031 117.058 29.394 117.065V123.071C29.394 123.402 29.6804 123.689 30.0113 123.689C30.3426 123.689 30.6287 123.402 30.6287 123.071L30.6282 117.028C32.1167 116.99 33.5111 116.824 34.811 116.53L36.8503 122.138C36.9341 122.387 37.1804 122.55 37.4277 122.55H37.4316C37.463 122.55 37.4962 122.55 37.5304 122.545C37.567 122.539 37.6011 122.527 37.6402 122.508C37.9607 122.385 38.1278 122.056 38.0045 121.726C38.0044 121.726 38.0044 121.725 38.0043 121.725L36.0056 116.203C37.3558 115.8 38.58 115.271 39.648 114.645L43.3521 119.063C43.4826 119.235 43.6584 119.273 43.8442 119.273C43.9655 119.273 44.1302 119.234 44.2568 119.109C44.5022 118.901 44.5428 118.496 44.3352 118.247L44.3346 118.246Z" fill="white" stroke="white" stroke-width="0.2"/>
</svg>
