<svg width="80" height="152" viewBox="0 0 80 152" fill="none" xmlns="http://www.w3.org/2000/svg">
<rect width="80" height="152" fill="#101820"/>
<path d="M32.6715 118.058L32.6712 118.058C32.5632 117.826 32.5292 117.566 32.5738 117.315L32.5739 117.315C32.6183 117.063 32.7392 116.832 32.9201 116.651L32.9204 116.651L36.7072 112.864L36.7072 112.864L36.7086 112.862C36.9423 112.627 37.2605 112.494 37.5923 112.494C37.9244 112.494 38.2426 112.627 38.4763 112.862L38.477 112.863L42.4728 116.876L42.8272 117.232L43.1815 116.876L47.0308 113.01H47.0318L47.1784 112.862C47.4121 112.627 47.7303 112.494 48.0621 112.494C48.3942 112.494 48.7124 112.627 48.9461 112.862L48.9468 112.863L52.9426 116.876L53.297 117.232L53.6513 116.876L57.5006 113.01H57.5016L57.6483 112.862C57.8819 112.627 58.2001 112.494 58.5319 112.494C58.8641 112.494 59.1822 112.627 59.4159 112.862L59.4173 112.864L63.2041 116.651L63.2044 116.651C63.3854 116.832 63.5062 117.063 63.5506 117.315L63.5507 117.315C63.5954 117.566 63.5614 117.826 63.4533 118.058L63.453 118.059C59.7411 126.069 53.9615 130.699 48.0624 130.699H48.0622C42.1632 130.699 36.3839 126.07 32.6715 118.058ZM35.4939 117.532L35.2362 117.79L35.4025 118.114C38.5599 124.27 43.2642 128.21 48.0622 128.21C52.8621 128.21 57.4956 124.267 60.7198 118.118L60.8906 117.792L60.6305 117.532L58.8855 115.787L58.5312 115.433L58.1777 115.788L54.1818 119.802L54.1811 119.802C53.9474 120.038 53.6293 120.17 53.2971 120.17C52.9653 120.17 52.6472 120.038 52.4135 119.802L52.4128 119.802L48.4169 115.788L48.0626 115.432L47.7082 115.788L43.8589 119.654H43.858L43.7113 119.802C43.4776 120.038 43.1595 120.17 42.8273 120.17C42.4955 120.17 42.1774 120.038 41.9437 119.802L41.943 119.802L37.9471 115.788L37.5936 115.433L37.2393 115.787L35.4939 117.532Z" fill="white" stroke="#101820"/>
<path d="M34.8644 130.701H35.9143C36.3532 130.664 36.7407 130.4 36.9339 130.003L36.934 130.003C37.1297 129.602 37.0966 129.128 36.8471 128.757L34.8644 130.701ZM34.8644 130.701L34.8644 130.7H34.3978C28.7852 130.7 24.1244 128.647 20.8633 125.09C17.5991 121.53 15.7035 116.423 15.7031 110.262C15.7449 105.157 16.871 100.119 19.0071 95.4821C19.1787 95.1167 19.5173 94.8571 19.9149 94.7864L19.9149 94.7864L19.9213 94.7852C20.3227 94.7083 20.7362 94.8334 21.0274 95.1197L23.5732 97.6827L23.9276 98.0394L24.2823 97.6831L28.2782 93.6697L28.2789 93.669C28.5125 93.4334 28.8307 93.3008 29.1629 93.3008C29.4951 93.3008 29.8132 93.4334 30.0469 93.669L30.0476 93.6697L34.0435 97.6831L34.3978 98.039L34.7521 97.6831L38.748 93.6697L38.7487 93.669C38.9823 93.4334 39.3005 93.3008 39.6327 93.3008C39.9649 93.3008 40.283 93.4334 40.5167 93.669L40.5174 93.6697L44.5133 97.6831L44.8681 98.0394L45.2224 97.6826L47.749 95.1386L47.7665 95.1213C48.0579 94.8338 48.4721 94.7082 48.8743 94.7852L48.8743 94.7852L48.8807 94.7864C49.2784 94.8571 49.6169 95.1166 49.7885 95.482C51.9047 100.083 53.0301 105.077 53.0925 110.141C53.0917 110.471 52.9606 110.786 52.7279 111.019C52.4945 111.252 52.1777 111.383 51.8475 111.383C51.5173 111.383 51.2005 111.252 50.9671 111.019C50.7337 110.785 50.6025 110.469 50.6026 110.138L50.6025 110.132C50.5562 106.296 49.8492 102.497 48.5123 98.9012L48.2395 98.1674L47.6885 98.7234L45.7516 100.678C45.7516 100.678 45.7515 100.678 45.7515 100.678C45.5179 100.914 45.1998 101.046 44.8676 101.046C44.5354 101.046 44.2173 100.913 43.9836 100.678L43.9829 100.677L39.987 96.6637L39.6327 96.3079L39.2784 96.6637L35.2825 100.677L35.2818 100.678C35.0482 100.913 34.73 101.046 34.3978 101.046C34.0656 101.046 33.7475 100.913 33.5138 100.678L33.5131 100.677L29.5172 96.6637L29.1629 96.3079L28.8086 96.6637L24.8127 100.677L24.812 100.678C24.5783 100.913 24.2602 101.046 23.928 101.046C23.5958 101.046 23.2778 100.914 23.0441 100.678C23.044 100.678 23.044 100.678 23.0439 100.678L21.1071 98.7234L20.5567 98.1681L20.2835 98.9006C18.9278 102.535 18.2199 106.378 18.1931 110.258V110.261C18.1931 115.652 19.7615 120.143 22.5942 123.293C25.4319 126.447 29.4988 128.211 34.3978 128.211H35.689H35.7064L35.7239 128.21C36.1691 128.178 36.5969 128.387 36.8468 128.757L34.8644 130.701Z" fill="white" stroke="#101820"/>
</svg>
