<svg width="68" height="32" viewBox="0 0 68 32" fill="none" xmlns="http://www.w3.org/2000/svg">
<path d="M65.3067 7.24927C61.8055 4.88241 58.9655 3.01115 58.2065 2.58392C56.7946 1.78072 54.7625 1.1057 52.9833 0.840817C51.8816 0.678469 49.4169 0.695558 48.2091 0.874995C45.5077 1.28514 42.3412 2.4472 40.4315 3.72889C39.5582 4.30993 40.1213 3.82288 41.1333 3.12223C43.3042 1.60983 45.4261 0.695558 47.8418 0.23415C49.1068 -0.0136436 51.6449 -0.0307328 52.8609 0.199971C55.2685 0.652835 57.6189 1.60983 59.7245 3.0026C60.5977 3.57509 67.9999 8.95819 67.9999 9.018C67.9999 9.07781 68.0652 9.11199 65.3067 7.24927Z" fill="#40C1AC"/>
<path d="M43.4151 0.464437C44.6789 0.766262 45.7848 1.15432 45.9032 1.24056C46.0217 1.36991 45.1529 3.18085 44.047 5.20739C38.6364 14.9089 31.3696 23.9636 26.9463 26.4644C22.2466 29.1377 14.9403 31.078 6.80463 31.811C2.06541 32.2422 -1.29155 31.8973 0.485661 31.1642C6.05425 28.8359 7.67349 27.2405 15.2562 16.5473C22.4046 6.41468 25.4061 3.52579 31.0932 1.36991C34.6081 0.0332603 40.0187 -0.354797 43.4151 0.464437Z" fill="#40C1AC"/>
</svg>
