<svg width="61" height="152" viewBox="0 0 61 152" fill="none" xmlns="http://www.w3.org/2000/svg">
<rect width="61" height="152" fill="#101820"/>
<path d="M32.1076 109.242C32.1076 109.873 31.5959 110.385 30.9648 110.385C30.3336 110.385 29.8219 109.873 29.8219 109.242C29.8219 108.611 30.3336 108.099 30.9648 108.099C31.5959 108.099 32.1076 108.611 32.1076 109.242Z" fill="white" stroke="white" stroke-width="0.8"/>
<path d="M29.8144 121.435V121.143L29.5359 121.054C28.8385 120.831 28.2043 120.445 27.6863 119.928C27.6863 119.928 27.6863 119.928 27.6863 119.928C27.6862 119.928 27.6862 119.928 27.6861 119.928L26.1126 118.354L27.7275 116.74L29.3012 118.313L29.3015 118.314C29.741 118.752 30.3364 118.998 30.9572 118.998C31.578 118.998 32.1735 118.752 32.6129 118.314L32.6132 118.313L34.187 116.74L35.8019 118.354L34.2283 119.928C34.2282 119.928 34.2282 119.928 34.2281 119.928C33.7103 120.446 33.0761 120.832 32.3786 121.054L32.1001 121.143V121.435V129.413H29.8144V121.435Z" fill="white" stroke="#101820" stroke-width="0.8"/>
<path d="M40.8689 112.809L40.869 112.809L40.8655 112.801C39.6911 110.276 39.0792 107.526 39.0719 104.741V102.441H41.3628L41.3628 104.72L41.3628 104.721C41.3667 107.178 41.9053 109.605 42.9412 111.833L43.1658 112.344L43.1657 112.344L43.1694 112.352C44.386 114.961 44.9976 117.811 44.9583 120.69C44.9191 123.567 44.2305 126.399 42.9439 128.973L42.7173 129.413H40.1574L40.8965 127.934L40.8967 127.934C42.0267 125.669 42.6312 123.178 42.6649 120.647C42.6986 118.117 42.1615 115.612 41.0934 113.319L40.8689 112.809Z" fill="white" stroke="#101820" stroke-width="0.8"/>
<path d="M20.5598 104.742V104.741V102.441H22.8456V104.74C22.8378 107.525 22.2258 110.276 21.052 112.801L21.0519 112.801L21.0486 112.809L20.824 113.319C19.7552 115.612 19.2172 118.116 19.25 120.646C19.2828 123.177 19.8863 125.668 21.0156 127.934L21.0158 127.934L21.7549 129.413H19.1949L18.9787 128.994C17.6921 126.42 17.0035 123.588 16.9643 120.71C16.925 117.832 17.5365 114.982 18.7532 112.372L18.7533 112.373L18.7568 112.365L18.9814 111.854C20.0171 109.626 20.5557 107.199 20.5598 104.742Z" fill="white" stroke="#101820" stroke-width="0.8"/>
</svg>
