<svg width="250" height="214" viewBox="0 0 250 214" fill="none" xmlns="http://www.w3.org/2000/svg">
<path opacity="0.2" d="M0.595795 213.87C4.76633 213.156 16.6623 209.843 30.1272 205.664C38.1108 203.195 45.3397 200.229 52.1516 196.591C62.7368 190.983 70.5219 185.094 77.0557 177.732C80.4517 173.9 82.7753 170.587 84.9996 166.386C86.1514 164.199 86.2507 164.091 88.058 163.095C91.9703 160.952 107.242 151.446 106.786 151.446C106.269 151.446 91.5136 160.215 88.6935 162.207C87.9587 162.727 87.3033 163.139 87.2834 163.095C87.2437 163.052 88.058 161.904 89.0907 160.54C96.0019 151.425 98.9014 146.704 101.483 140.512C104.383 133.475 106.329 125.788 109.447 108.856C110.897 100.866 111.631 98.073 113.2 94.5653C117.788 84.2805 127.34 75.836 138.78 71.9819C141.282 71.1374 139.852 71.3323 136.257 72.3283C132.008 73.5192 128.274 75.2947 124.759 77.8064C123.726 78.5426 122.971 79.0189 123.051 78.8674C123.15 78.7158 124.203 77.2218 125.414 75.5545C128.532 71.289 130.915 67.7597 132.325 65.313C134.768 61.0907 136.774 55.6776 138.164 49.7232L138.72 47.2548L139.912 46.6702C142.454 45.4144 150.993 40.2395 160.248 34.3717C167.04 30.0628 170.575 27.9842 174.487 25.9922C197.465 14.3432 218.397 12.7409 232.2 21.5968C238.932 25.9056 243.897 32.4879 247.114 41.3437C248.246 44.4833 248.505 46.3021 248.385 50.6326C248.286 54.9631 247.988 56.3272 246.459 59.7699C243.222 67.0668 236.648 72.285 228.446 74.0822C226.004 74.6235 220.582 74.6235 218.258 74.0822C212.916 72.8696 208.666 70.4013 205.33 66.6337C203.383 64.4252 202.728 63.4508 201.616 61.0474C200.444 58.4924 199.789 55.6776 199.531 52.1699C199.471 51.4987 199.451 51.5853 199.431 52.5164C199.411 53.1876 199.531 54.5517 199.689 55.5477C201.318 65.681 209.163 73.8223 219.45 76.0309C222.032 76.5938 227.076 76.5289 229.777 75.901C235.218 74.6451 239.905 71.8303 243.599 67.6298C245.565 65.3779 246.618 63.7107 247.869 60.8526C249.498 57.1067 250.193 53.1226 249.954 48.7272C249.776 45.501 249.378 43.5306 248.306 40.5859C242.706 25.1694 232.796 16.4435 217.96 13.8019C214.823 13.2606 206.323 13.2606 202.569 13.8019C189.422 15.7506 176.017 21.2503 161.857 30.5392C152.165 36.8833 139.693 45.566 139.316 46.2155C138.919 46.9084 138.919 46.1289 139.356 43.8987C139.614 42.4913 140.269 38.5722 140.805 35.1728C142.037 27.3779 142.493 25.6891 144.221 22.1814C145.393 19.778 146.624 18.0025 148.749 15.599C152.284 11.615 156.534 8.60531 161.36 6.67825C163.604 5.7905 163.346 5.74719 160.606 6.59164C155.263 8.21557 151.549 10.6406 147.796 14.9278L145.81 17.1797L145.691 16.3785C145.631 15.9455 145.572 14.3432 145.572 12.8492C145.572 10.6623 145.512 10.0777 145.294 9.99106C145.135 9.92611 144.896 9.47141 144.777 9.01671C144.658 8.4754 144.44 8.1073 144.201 8.04235C143.983 7.97739 143.665 7.58765 143.506 7.1546C143.268 6.54833 143.089 6.37511 142.712 6.37511C142.394 6.37511 142.076 6.18024 141.878 5.8338C141.639 5.44406 141.441 5.3358 141.123 5.42241C140.825 5.48736 140.547 5.35745 140.21 4.98936C139.951 4.66457 139.594 4.4264 139.395 4.4264C139.197 4.4264 138.78 4.18822 138.462 3.88509C138.124 3.58195 137.687 3.34378 137.449 3.34378C137.231 3.34378 136.893 3.1056 136.714 2.82412C136.555 2.52098 136.218 2.26116 135.979 2.21785C135.721 2.17455 135.523 1.93637 135.443 1.61158C135.364 1.24349 135.145 1.04862 134.708 0.940359C134.371 0.875402 133.815 0.593921 133.457 0.31244C132.762 -0.22887 132.385 -0.0556512 132.504 0.745488C132.564 1.22184 132.802 1.46002 133.497 1.69819C133.835 1.80646 133.835 1.84976 133.517 2.60759C133.179 3.34378 133.179 3.40873 133.517 3.66856C133.954 4.015 133.954 4.33979 133.437 5.09762C133.12 5.59563 133.08 5.81215 133.259 6.05033C133.437 6.26685 133.398 6.50503 133.14 7.04634C132.842 7.71756 132.842 7.76087 133.159 8.02069C133.437 8.23722 133.477 8.4754 133.358 9.18992C133.239 9.96941 133.279 10.1426 133.636 10.4025C133.974 10.6623 134.053 10.9654 134.053 11.8748C134.053 13.7802 134.53 15.101 135.602 16.1187C137.449 17.8942 141.203 19.713 143.228 19.8213C143.764 19.8646 144.182 19.9079 144.182 19.9512C144.182 20.0161 143.824 20.8606 143.387 21.8566C141.818 25.4292 140.925 29.0668 140.309 34.3067C138.72 47.9261 134.371 60.3545 126.943 72.5232C124.62 76.334 121.978 80.0149 120.727 81.1842C120.092 81.7904 118.92 83.0679 118.126 84.0639L116.676 85.8611L116.517 84.93C116.418 84.4104 116.398 82.2235 116.457 80.0582C116.557 76.7238 116.517 76.0958 116.279 76.0958C115.921 76.0958 115.782 75.836 115.484 74.6018C115.325 73.844 115.166 73.6058 114.869 73.6058C114.551 73.6058 113.975 72.6748 113.538 71.4406C113.498 71.3323 113.24 71.2457 112.942 71.289C112.545 71.3107 112.287 71.1374 111.89 70.5528C111.433 69.9249 111.254 69.795 110.817 69.9033C110.38 69.9899 110.142 69.8383 109.506 69.1454C109.089 68.6907 108.573 68.301 108.335 68.301C108.116 68.2793 107.62 67.9978 107.242 67.6514C106.865 67.2833 106.329 67.0018 106.051 67.0018C105.713 67.0018 105.376 66.7637 105.018 66.2657C104.72 65.8543 104.264 65.4862 104.025 65.4429C103.707 65.3996 103.509 65.1397 103.35 64.6201C103.191 64.1437 102.973 63.8406 102.655 63.7323C102.019 63.5591 100.907 62.9312 100.311 62.4115C99.6759 61.8919 99.4574 62.1517 99.5369 63.3426C99.5965 64.2087 99.6561 64.2736 100.292 64.4685C100.669 64.5768 101.007 64.685 101.046 64.7283C101.086 64.75 100.907 65.248 100.649 65.811L100.192 66.8286L100.629 67.1534C101.245 67.6081 101.205 68.0628 100.47 69.1671C99.8944 70.0332 99.8745 70.1198 100.172 70.3796C100.49 70.6178 100.49 70.7044 100.113 71.5272C99.5766 72.6315 99.5965 72.9779 100.113 73.1295C100.49 73.2377 100.53 73.346 100.411 73.9739C100.033 75.8793 100.033 75.9876 100.53 76.2041C100.947 76.399 100.987 76.5938 101.106 78.4776C101.265 81.3357 101.543 82.2235 102.615 83.501C104.899 86.1642 110.936 89.3038 113.756 89.3038C114.114 89.3038 114.392 89.3688 114.352 89.477C114.313 89.5636 113.677 90.9494 112.942 92.5517C110.837 97.1203 109.645 101.516 108.712 108.011C106.388 124.511 101.086 139.537 92.6059 153.828C90.9178 156.643 86.9657 162.749 86.8664 162.641C86.8267 162.619 87.1047 161.731 87.482 160.692C89.2297 155.907 90.0042 151.619 90.0241 146.358C90.0638 142.439 89.8454 140.252 89.051 136.506C87.8197 130.747 85.1585 124.143 82.5171 120.31C81.4248 118.708 78.2671 115.438 76.5791 114.117C72.9845 111.324 68.6352 109.614 63.849 109.116C62.4985 108.964 62.4588 108.943 62.1212 108.185C61.5651 106.886 59.1819 102.663 57.8315 100.585C55.925 97.6616 53.5021 94.587 52.0523 93.2662C49.2521 90.7329 45.0418 89.0656 38.7264 88.0047C36.244 87.5716 31.9741 87.4201 31.9741 87.7448C31.9741 87.8315 32.709 88.2428 33.6026 88.6326C35.0723 89.2822 35.4297 89.5636 37.0384 91.3391C38.1505 92.5733 40.0372 95.1283 41.9834 98.073C45.6376 103.551 47.6236 105.868 49.967 107.362C51.5161 108.358 54.1972 109.441 55.1107 109.441C55.3689 109.441 55.6469 109.527 55.7065 109.657C55.7661 109.787 55.6469 109.874 55.4285 109.874C55.21 109.874 54.078 110.22 52.9063 110.631C44.4659 113.641 37.5746 121.068 34.7942 130.162C33.8012 133.366 33.4835 135.553 33.4835 139.213C33.5033 142.98 34.0197 145.925 35.251 149.238C36.1248 151.598 36.0851 152.269 35.0723 152.139C34.5956 152.074 34.2977 152.182 34.0396 152.486C33.8211 152.724 33.265 153.135 32.7685 153.395C32.272 153.676 31.577 154.174 31.2195 154.499C30.584 155.105 30.5442 155.105 29.9683 154.802C29.4122 154.478 29.3725 154.499 28.8959 154.997C28.6178 155.3 28.3994 155.668 28.3994 155.82C28.3994 155.972 28.0022 156.383 27.5057 156.708C27.0092 157.054 26.5723 157.422 26.5127 157.531C26.4531 157.617 26.751 157.899 27.2078 158.158C28.1015 158.656 28.1412 158.721 27.6646 159.284C27.4064 159.609 27.3866 159.782 27.5653 160.215C27.7837 160.713 27.883 160.757 28.598 160.627C29.2931 160.497 29.4718 160.562 30.0875 161.168C30.8223 161.861 31.5174 162.034 31.9344 161.58C32.3316 161.146 32.3912 161.515 32.0536 162.251L31.7358 162.944L32.709 164.156C33.2253 164.827 34.1389 165.65 34.7148 166.018C37.3164 167.621 41.4869 166.278 45.6773 162.489C46.1738 162.056 46.6902 161.731 46.8292 161.774C46.9682 161.839 47.0278 161.753 46.9682 161.58C46.9086 161.406 47.0278 161.103 47.2264 160.908C47.5839 160.54 47.5839 160.475 46.9881 158.527C46.154 155.842 45.2802 154.326 43.4729 152.442C41.0103 149.866 38.9648 149.043 37.1178 149.909C36.5617 150.19 36.0851 150.364 36.0454 150.32C35.8468 150.06 34.9332 146.899 34.6353 145.384C34.119 142.72 34.1587 138.39 34.7346 135.423C36.4227 126.719 41.904 119.054 49.4904 114.745C57.9904 109.939 67.5826 110.068 74.9704 115.092C76.9365 116.413 80.2332 119.704 81.6433 121.739C84.0662 125.247 86.7274 132.522 87.7005 138.368C88.1573 141.031 88.2169 147.895 87.8197 150.364C86.6479 157.552 84.2251 163.442 79.7566 169.959C77.6316 173.055 72.1702 179.075 69.0919 181.738C61.3467 188.364 52.8467 193.625 42.4799 198.172C37.7533 200.251 34.2977 201.528 25.8176 204.3C9.87029 209.561 0 213.199 0 213.827C0 213.935 0.0198517 214 0.0397186 214C0.0794373 213.978 0.317749 213.913 0.595795 213.87ZM112.605 85.9044C110.023 83.0246 107.918 79.5386 105.316 73.7357C103.171 68.9506 102.615 67.2833 104.462 71.1591C105.971 74.3204 108.613 79.2138 110.519 82.3967C112.128 85.0816 113.3 86.5973 114.491 87.5283C114.809 87.7881 114.968 88.0047 114.809 88.0047C114.65 88.0047 113.657 87.052 112.605 85.9044ZM142.374 16.9848C140.607 14.9928 138.919 12.2429 137.012 8.23722C135.344 4.72953 134.967 3.58195 136.456 6.54833C137.449 8.54035 140.309 13.5204 141.54 15.4042C142.017 16.1403 142.93 17.2446 143.546 17.8725C144.162 18.5005 144.46 18.8685 144.182 18.717C143.903 18.5654 143.089 17.7859 142.374 16.9848Z" fill="white"/>
</svg>
