<svg width="167" height="112" viewBox="0 0 167 112" fill="none" xmlns="http://www.w3.org/2000/svg">
<mask id="mask0_493_309" style="mask-type:alpha" maskUnits="userSpaceOnUse" x="0" y="0" width="167" height="112">
<rect width="167" height="112" fill="#C4C4C4"/>
</mask>
<g mask="url(#mask0_493_309)">
<g opacity="0.2">
<path d="M54.3784 23.1223C52.1586 26.1516 51.0025 28.3731 50.0776 31.5539C49.0139 35.0881 49.2914 42.3079 50.6788 46.246C51.1875 47.7607 52.806 52.4056 54.3321 56.5962C56.9218 63.917 57.0143 64.3209 56.9681 68.8649C56.9681 73.5098 56.9681 73.5603 57.8005 72.399C59.0028 70.6824 62.5175 62.7053 63.8586 58.6157C64.506 56.6466 65.2922 53.3144 65.6159 51.1939C66.1246 47.7607 66.1246 46.8014 65.3846 43.1157C63.9973 35.9464 58.0317 21.0018 56.5981 21.0018C56.2744 21.0018 55.257 21.9611 54.3784 23.1223Z" fill="white"/>
<path d="M13.7727 33.0179C17.3798 36.0472 18.721 38.5716 23.5304 50.7393C27.3688 60.5846 30.236 64.5732 35.5079 67.451C39.4387 69.622 46.6067 70.8842 46.6067 69.4201C46.6067 67.9054 43.0458 57.5048 40.8723 52.5569C37.1265 44.1758 34.4443 41.298 26.2589 36.855C22.0506 34.583 14.5127 31.6042 13.0328 31.6042C12.3391 31.6547 12.5241 31.9576 13.7727 33.0179Z" fill="white"/>
<path d="M194.126 54.3729C174.287 68.3582 158.194 79.4152 153.893 81.9397C145.893 86.6856 134.378 90.6742 124.296 92.2393C118.053 93.1986 104.087 93.0976 97.2429 92.0374C81.9358 89.6139 63.9928 82.7475 53.1715 75.1742C48.2233 71.741 51.4142 74.6188 57.1485 78.7589C69.4497 87.6953 81.4734 93.0976 95.1619 95.824C102.33 97.2882 116.712 97.3891 123.603 96.026C137.245 93.3501 150.563 87.6953 162.495 79.4657C167.443 76.083 209.387 44.2752 209.387 43.9218C209.387 43.5684 209.757 43.3664 194.126 54.3729Z" fill="white"/>
<path d="M33.1974 78.3554C32.5499 78.4564 30.7926 78.8098 29.2665 79.1128C24.1333 80.1225 19.3701 83.5053 12.9421 90.7756C9.88992 94.1583 6.69902 98.7528 7.02273 99.1567C7.16147 99.2577 7.85514 98.9043 8.6413 98.2984C11.601 95.9759 13.497 95.6225 25.1045 95.2186C37.5444 94.7642 39.1629 94.4108 43.6487 91.2805C46.9321 88.958 48.9206 86.4841 50.8167 82.344L52.204 79.3147L50.6779 78.9108C48.8744 78.5069 34.8622 78.002 33.1974 78.3554Z" fill="white"/>
</g>
</g>
</svg>
